inDegrees=no
num_controls=7
num_derivatives=13
num_iterations=115
num_multipliers=7
num_parameters=0
num_slacks=7
num_states=26
objective=0.482825
objective_accelerations=0.035299
objective_balance=0.003437
objective_effort=0.033335
objective_height=0.404627
objective_ligament=0.006126
solver_duration=1777.631791
status=Solve_Succeeded
success=true
DataType=double
version=3
OpenSimVersion=4.5
endheader
time	/jointset/ground_pelvis/pelvis_tilt/value	/jointset/ground_pelvis/pelvis_tx/value	/jointset/ground_pelvis/pelvis_ty/value	/jointset/hip_l/hip_flexion_l/value	/jointset/hip_l/hip_adduction_l/value	/jointset/hip_l/hip_rotation_l/value	/jointset/back/lumbar_extension/value	/jointset/patellofemoral_l/patellar_flexion_l/value	/jointset/knee_l/knee_flexion_l/value	/jointset/knee_l/knee_adduction_l/value	/jointset/knee_l/knee_rotation_l/value	/jointset/ankle_l/ankle_angle_l/value	/jointset/subtalar_l/subtalar_angle_l/value	/jointset/ground_pelvis/pelvis_tilt/speed	/jointset/ground_pelvis/pelvis_tx/speed	/jointset/ground_pelvis/pelvis_ty/speed	/jointset/hip_l/hip_flexion_l/speed	/jointset/hip_l/hip_adduction_l/speed	/jointset/hip_l/hip_rotation_l/speed	/jointset/back/lumbar_extension/speed	/jointset/patellofemoral_l/patellar_flexion_l/speed	/jointset/knee_l/knee_flexion_l/speed	/jointset/knee_l/knee_adduction_l/speed	/jointset/knee_l/knee_rotation_l/speed	/jointset/ankle_l/ankle_angle_l/speed	/jointset/subtalar_l/subtalar_angle_l/speed	/forceset/tau_hip_flexion_l	/forceset/tau_hip_adduction_l	/forceset/tau_hip_rotation_l	/forceset/tau_knee_flexion_l	/forceset/tau_ankle_angle_l	/forceset/tau_subtalar_angle_l	/forceset/tau_lumbar_extension	lambda_cid13_p0	lambda_cid13_p1	lambda_cid13_p2	lambda_cid13_p3	lambda_cid13_p4	lambda_cid13_p5	lambda_cid14_p0	/jointset/ground_pelvis/pelvis_tilt/accel	/jointset/ground_pelvis/pelvis_tx/accel	/jointset/ground_pelvis/pelvis_ty/accel	/jointset/hip_l/hip_flexion_l/accel	/jointset/hip_l/hip_adduction_l/accel	/jointset/hip_l/hip_rotation_l/accel	/jointset/back/lumbar_extension/accel	/jointset/patellofemoral_l/patellar_flexion_l/accel	/jointset/knee_l/knee_flexion_l/accel	/jointset/knee_l/knee_adduction_l/accel	/jointset/knee_l/knee_rotation_l/accel	/jointset/ankle_l/ankle_angle_l/accel	/jointset/subtalar_l/subtalar_angle_l/accel	gamma_cid13_p0	gamma_cid13_p1	gamma_cid13_p2	gamma_cid13_p3	gamma_cid13_p4	gamma_cid13_p5	gamma_cid14_p0
0.5	-0.05558614339857756	-0.02474985572251638	0.8375083534269476	0.7826619596357183	-0.3292321000297017	-0.1132422536192721	-0.7735836349048402	0.8046449697112087	0.8046449697113073	-0.1188231205225281	-0.1745152973449013	0.133510785792172	0.008732908613462646	-0.02926465407912957	-0.1420338743796757	-0.2972910038490688	1.205783923013152	-0.04495945252253013	0.478619371185098	-0.845877712384916	1.47363441382359	1.473634413823422	0.1191664784265755	4.257210358426702e-05	0.3972326360249795	0.08444617339316209	-0.238718552759289	0.02709645776702428	-0.002939429892257262	-0.2291416638095261	0.07294750511239803	0.04388258730542274	0.3060416175755039	-20.9063359096792	-17.50163638005582	4.739179495249489	-5.433888483767602	-702.2923998473972	-76.25095470246097	-14.30712646984415	0.1626915874782996	0.5066592419732632	-0.1303046150385934	-1.223058023170117	0.2479175394659208	-0.4063536035329657	1.579489040891596	-1.144518201541861	-1.144518201541902	-0.2203955309523727	0.01457989079941562	-0.1344079760817394	0.2619340854102386	-5.230680963337842e-08	-4.914042870600141e-07	1.038218404473099e-07	-5.822312239036637e-08	-6.729884394630541e-08	-1.72928984903703e-07	-6.943044630516597e-08
0.51	-0.05587069960519912	-0.02614477361687513	0.8345295851886761	0.7946568608296692	-0.3296696273975858	-0.1084775956377144	-0.7819622869795683	0.8193217865839288	0.8193217865840152	-0.1176427597736107	-0.1745149344954901	0.1374755795120786	0.009589867397124301	-0.02764027331613724	-0.1369409934489909	-0.2983937285085465	1.19301432505615	-0.04255107027788035	0.474249777101921	-0.8297485347540968	1.461506338391946	1.461506338391762	0.1168974189620142	2.971964949547135e-05	0.3956623223341439	0.08692243490241783	-0.2438386448000265	0.02771506052389207	-0.00307187885545229	-0.2321292929727795	0.07184821557361439	0.04409100169375266	0.3114865932299298	-21.45071283618811	-17.46194692010544	4.693002069039911	-5.300406438571344	-705.7936261002842	-76.12799910726835	-13.76061431450827	0.1632557146201542	0.5118964444793045	-0.08993033960957453	-1.331211686900978	0.2365849407097673	-0.4616880286448846	1.645257295123336	-1.2803329010658	-1.280332901068216	-0.2314764370948548	-0.009246194525789932	-0.1779280540576759	0.23707021314478	-4.169367240925076e-08	-4.695632166688499e-07	5.387460337970356e-08	-6.306970432223467e-08	-5.220812540200658e-08	-1.559837076239414e-07	-6.089845884798128e-08
0.52	-0.05613882312540904	-0.0274885039167544	0.8315418549141688	0.8065186058430617	-0.3300832136682757	-0.1037585187405744	-0.7901765222437988	0.8338706465649141	0.8338706465649894	-0.1164853526759152	-0.1745147058468225	0.1414227530973821	0.01047090840177083	-0.02597811679672791	-0.1317963554837797	-0.2990834110963087	1.17915268690172	-0.04017123308341936	0.4695031543013518	-0.8129943502854281	1.448043035476695	1.448043035476495	0.1145757481819783	1.573195489614667e-05	0.3937086091043798	0.0892626175901348	-0.2489587368407686	0.02833366328075867	-0.003204327818649774	-0.2351169221360333	0.07074892603483153	0.04429941608208372	0.3169315688843523	-21.99802193948661	-17.42211662520818	4.647227891672324	-5.191657426962873	-709.3621142076955	-76.02517573449192	-13.21120695777183	0.1702467387616718	0.5170106488785572	-0.04769620069549284	-1.441466062655724	0.2422085294281632	-0.4817593470113715	1.70449040846148	-1.411563698263175	-1.411563698263158	-0.2309177940472818	0.01435284269730336	-0.2110878838674237	0.2347183211024892	-3.729866987934119e-08	-4.372590983057637e-07	4.229619097088497e-08	-6.189060433417323e-08	-4.411553575527215e-08	-1.444574817133064e-07	-5.602448044886211e-08
0.53	-0.05639014968986487	-0.02878057688857289	0.8285493080941141	0.8182363806519466	-0.3304731548275455	-0.09908870212880358	-0.7982201739711962	0.8482783072953848	0.8482783072953786	-0.1153514035811148	-0.1745145617044449	0.145348510186371	0.01137466297507607	-0.02428045440591878	-0.1266140667814818	-0.2993548922784232	1.164224534856896	-0.03782645446304977	0.4644008342076556	-0.795642090259528	1.433272803836407	1.433272803836297	0.1122017249931793	1.107390205149199e-05	0.3913800700857581	0.09145976065187118	-0.2539593494020067	0.02895682482290763	-0.003354526809240946	-0.2380737816219442	0.06952347994769591	0.04443348006642769	0.3222455672827906	-22.58830321770976	-17.33941211641575	4.591123345126936	-4.991684904802866	-712.8914586550112	-75.85768404463877	-12.65978284366959	0.1705345647046842	0.5194515414743123	-0.006222954511549804	-1.545152924262704	0.2292328761609341	-0.533417920411377	1.764679539790046	-1.542188221149563	-1.542188221136119	-0.2425638561076929	-0.008170641903422838	-0.2531627232934333	0.2079944706533869	-3.940697468733993e-08	-3.725635493924758e-07	8.764055250763472e-08	-5.010877088794747e-08	-4.358582172355306e-08	-1.305585580435814e-07	-5.457522115546601e-08
0.54	-0.05662429791531993	-0.03002070426125463	0.8255561766867299	0.8297995413106088	-0.3308399241310478	-0.0944716986339427	-0.8060874859503073	0.8625317786446032	0.8625317786445201	-0.1142415785731615	-0.1745145232451243	0.149249096722687	0.01229954541338762	-0.0225424489965437	-0.121407235656429	-0.2992003285622214	1.148229856857395	-0.03553686192989681	0.4589405309194538	-0.7777264006281976	1.417205159226603	1.417205159226582	0.10975093081192	-5.404655915761461e-06	0.3886744985697805	0.09348819059137421	-0.2589599619632502	0.02957998636505486	-0.003504725799808986	-0.2410306411078568	0.06829803386056101	0.04456754405077318	0.3275595656812247	-23.18243949588604	-17.25630704035851	4.535268491911847	-4.813071844354498	-716.4993980979491	-75.7101912441659	-12.10735780000932	0.1783153424748347	0.5219191334295652	0.03751277896777585	-1.654771253591145	0.231171311984832	-0.5533559859125003	1.817176329547507	-1.671046292166274	-1.671046292166303	-0.2462719925393683	0.01198874167277718	-0.286494383338587	0.2009756966558254	-4.87104280394075e-08	-2.720306730619429e-07	1.959633022394821e-07	-2.659625361566745e-08	-5.142354454248936e-08	-1.140345219595439e-07	-5.691501278755078e-08
